<?xml version="1.0" standalone="no"?>
<!DOCTYPE svg PUBLIC "-//W3C//DTD SVG 20010904//EN" "http://www.w3.org/TR/2001/REC-SVG-20010904/DTD/svg10.dtd">
<!-- Created using Krita: https://krita.org -->
<svg xmlns="http://www.w3.org/2000/svg" 
    xmlns:xlink="http://www.w3.org/1999/xlink"
    xmlns:krita="http://krita.org/namespaces/svg/krita"
    xmlns:sodipodi="http://sodipodi.sourceforge.net/DTD/sodipodi-0.dtd"
    width="1536pt"
    height="541.92pt"
    viewBox="0 0 1536 541.92">
<defs/>
<path id="shape0" transform="translate(145.83283580212, 169.439999999986)" fill="#000000" fill-rule="evenodd" stroke="#000000" stroke-width="0.227999999999982" stroke-linecap="square" stroke-linejoin="bevel" d="M29.7321 209.76L4.86945 209.76C1.66945 208.322 0.0694549 206.717 0.0694549 204.944L0.047017 174.42C0.0395377 127.76 0.0320584 81.1 0.0245791 34.44C0.00338022 24.3388 -0.0392306 14.7562 0.0845791 4.8C0.0845791 2.14903 2.01871 0 4.40458 0C10.3807 0.0772014 18.6599 0.0772014 29.242 2.84217e-14C87.9689 2.84217e-14 144.293 2.84217e-14 203.02 2.84217e-14C204.406 2.84217e-14 205.53 1.07452 205.53 2.4C205.53 14.08 205.53 25.76 205.53 37.44C205.53 38.7655 204.406 39.84 203.02 39.84C163.797 39.84 109.732 39.84 40.8246 39.84C40.1982 39.7432 39.6447 40.3773 39.6478 41.04C39.6115 54.6992 39.5662 68.3494 39.8413 82.32C39.8444 82.9827 40.0368 83.52 40.6995 83.52C92.7395 83.52 146.225 83.52 198.265 83.52C199.59 83.52 200.665 84.5945 200.665 85.92L200.665 120.96C200.665 122.285 199.59 123.36 198.265 123.36C155.053 123.283 112.425 123.799 68.9046 123.36L41.0646 123.36C40.4018 123.36 39.8646 123.897 39.8646 124.56L39.8646 169.44C40.2596 170.721 40.7396 171.281 41.3046 171.12C113.097 171.04 167.487 171 204.474 171C205.899 171 207.054 172.045 207.054 173.335L207.054 207.425C207.054 208.715 205.899 209.76 204.474 209.76Z" sodipodi:nodetypes="cccccccccccccccccccccccccccccc"/><path id="shape1" transform="translate(428.565937499265, 169.439999999986)" fill="#000000" fill-rule="evenodd" stroke="#000000" stroke-width="0.227999999999982" stroke-linecap="square" stroke-linejoin="miter" stroke-miterlimit="2" d="M118.32 132.48C103.707 149.6 81.6267 175.28 52.08 209.52L0 209.76L92.64 103.44C51.5796 57.6326 20.7796 23.2326 0.24 0.24L52.56 0C67.0667 16.2504 88.9867 40.6504 118.32 73.2L183.36 0L235.44 0L143.04 103.44C163.547 127.067 194.636 162.474 236.308 209.663L183.36 209.76C152.561 173.052 130.881 147.292 118.32 132.48Z" sodipodi:nodetypes="ccccccccccccc"/><rect id="shape2" transform="translate(741.119999999941, 169.319999999986)" fill="#000000" fill-rule="evenodd" stroke="#000000" stroke-width="0.227999999999982" stroke-linecap="square" stroke-linejoin="bevel" width="42.2399999999967" height="143.279999999989" rx="2.39999999999981" ry="2.39999999999981"/><rect id="shape3" transform="translate(741.119999999941, 339.359999999973)" fill="#000000" fill-rule="evenodd" stroke="#000000" stroke-width="0.227999999999982" stroke-linecap="square" stroke-linejoin="bevel" width="42.2399999999967" height="39.8399999999968" rx="2.39999999999981" ry="2.39999999999981"/><path id="shape4" transform="translate(1177.19999999991, 169.439999999986)" fill="#000000" fill-rule="evenodd" stroke="#000000" stroke-width="0.227999999999982" stroke-linecap="square" stroke-linejoin="bevel" d="M132.72 39.78L220.32 39.84C221.645 39.84 222.72 38.7655 222.72 37.44L222.72 2.4C222.72 1.07452 221.645 8.11625e-17 220.32 0L2.4 4.44089e-16C1.07452 3.62927e-16 1.62325e-16 1.07452 0 2.4L4.44089e-16 37.44C2.81764e-16 38.7655 1.07452 39.84 2.4 39.84C32.16 39.84 60.3898 40.3502 91.68 39.84L91.68 207.36C91.68 208.685 92.7545 209.76 94.08 209.76L130.32 209.76C131.645 209.76 132.72 208.685 132.72 207.36Z" sodipodi:nodetypes="ccccccccccccccc"/><path id="shape5" transform="translate(866.18999999992, 168.583999999977)" fill="#000000" fill-rule="evenodd" stroke="#000000" stroke-width="0.227999999999982" stroke-linecap="square" stroke-linejoin="bevel" d="M121.14 209.749C153.25 209.875 168.819 209.79 176.16 209.76C165.36 196.48 154.56 183.2 143.76 169.92C113.16 169.92 82.0181 169.378 51.96 169.92C45.0675 169.92 39.48 164.333 39.48 157.44L39.48 52.32C39.48 45.4275 45.0675 39.84 51.96 39.84C97.64 39.84 143.32 39.84 189 39.84C195.893 39.84 201.48 45.4275 201.48 52.32L201.48 157.44C201.48 160.065 202.286 165.187 198.69 165.256C189.97 155.256 182.18 145.632 173.46 135.632C162.9 135.632 147.14 135.632 126.18 135.632C153.232 169.06 180.538 202.525 208.138 234.512C235.659 234.512 252.18 234.512 257.7 234.512M121.016 209.741C84.0454 209.754 61.9467 209.76 54.72 209.76C26.6198 209.76 0 186.98 0 158.88C0.04 122.88 0.08 86.88 0.12 50.88C0.12 22.7798 22.8998 0 51 0C97.6401 1.50185e-05 144.28 4.9932e-08 190.92 0C219.02 0 241.8 22.7798 241.8 50.88L241.65 161.49C241.167 173.361 235.828 183.6 227.742 190.854C227.202 191.339 225.598 192.726 222.93 195.016L255.06 233.792M187.68 209.76" sodipodi:nodetypes="ccccccccccccccccccccccccccc"/>
</svg>
