<?xml version="1.0" encoding="UTF-8"?>
<svg xmlns="http://www.w3.org/2000/svg" viewBox="280 -60 706 272" width="706" height="272">
  <!-- X -->
  <path id="shape1" transform="translate(285.093000005427, -50.263999999999)" fill="#ffffff" fill-rule="evenodd" stroke="#ffffff" stroke-width="0.228" stroke-linecap="square" stroke-linejoin="miter" stroke-miterlimit="2" d="M118.32 132.48C103.707 149.6 81.6267 175.28 52.08 209.52L0 209.76L92.64 103.44C51.5796 57.6326 20.7796 23.2326 0.24 0.24L52.56 0C67.0667 16.2504 88.9867 40.6504 118.32 73.2L183.36 0L235.44 0L143.04 103.44C163.547 127.067 194.636 162.474 236.308 209.663L183.36 209.76C152.561 173.052 130.881 147.292 118.32 132.48Z"/>
  <!-- ! -->
  <rect id="shape2" transform="translate(597.839962873029, -50.383999999991)" fill="#ffffff" fill-rule="evenodd" stroke="#ffffff" stroke-width="0.228" stroke-linecap="square" stroke-linejoin="bevel" width="42.105" height="143.28" rx="2.4" ry="2.4"/>
  <rect id="shape3" transform="translate(597.839980690077, 119.594994408468)" fill="#ffffff" fill-rule="evenodd" stroke="#ffffff" stroke-width="0.228" stroke-linecap="square" stroke-linejoin="bevel" width="42.015" height="40.005" rx="2.4" ry="2.4"/>
  <!-- Q -->
  <path id="shape5" transform="translate(722.957000003254, -51.12)" fill="#ffffff" fill-rule="evenodd" stroke="#ffffff" stroke-width="0.228" stroke-linecap="square" stroke-linejoin="bevel" d="M121.14 209.749C153.25 209.875 168.819 209.79 176.16 209.76C165.36 196.48 154.56 183.2 143.76 169.92C113.16 169.92 82.0181 169.378 51.96 169.92C45.0675 169.92 39.48 164.333 39.48 157.44L39.48 52.32C39.48 45.4275 45.0675 39.84 51.96 39.84C97.64 39.84 143.32 39.84 189 39.84C195.893 39.84 201.48 45.4275 201.48 52.32L201.48 157.44C201.48 160.065 202.286 165.187 198.69 165.256C189.97 155.256 182.18 145.632 173.46 135.632C162.9 135.632 147.14 135.632 126.18 135.632C153.232 169.06 180.538 202.525 208.138 234.512C235.659 234.512 252.18 234.512 257.7 234.512M121.016 209.741C84.0454 209.754 61.9467 209.76 54.72 209.76C26.6198 209.76 0 186.98 0 158.88C0.04 122.88 0.08 86.88 0.12 50.88C0.12 22.7798 22.8998 0 51 0C97.6401 1.50185e-05 144.28 4.9932e-08 190.92 0C219.02 0 241.8 22.7798 241.8 50.88L241.65 161.49C241.167 173.361 235.828 183.6 227.742 190.854C227.202 191.339 225.598 192.726 222.93 195.016L255.06 233.792M187.68 209.76"/>
</svg>
